<svg xmlns="http://www.w3.org/2000/svg" width="48" height="48" fill="none" viewBox="0 0 48 48"><path fill="#1ABCFE" fill-rule="evenodd" d="M24 24C24 20.6863 26.6863 18 30 18C33.3137 18 36 20.6863 36 24C36 27.3137 33.3137 30 30 30C26.6863 30 24 27.3137 24 24Z" clip-rule="evenodd"/><path fill="#0ACF83" fill-rule="evenodd" d="M12 36C12 32.6863 14.6863 30 18 30H24V36C24 39.3137 21.3137 42 18 42C14.6863 42 12 39.3137 12 36Z" clip-rule="evenodd"/><path fill="#FF7262" fill-rule="evenodd" d="M24 6V18H30C33.3137 18 36 15.3137 36 12C36 8.68629 33.3137 6 30 6H24Z" clip-rule="evenodd"/><path fill="#F24E1E" fill-rule="evenodd" d="M12 12C12 15.3137 14.6863 18 18 18H24V6H18C14.6863 6 12 8.68629 12 12Z" clip-rule="evenodd"/><path fill="#A259FF" fill-rule="evenodd" d="M12 24C12 27.3137 14.6863 30 18 30H24V18H18C14.6863 18 12 20.6863 12 24Z" clip-rule="evenodd"/></svg>